<svg id="图层_1" data-name="图层 1" xmlns="http://www.w3.org/2000/svg" viewBox="0 0 40 40"><defs><style>.cls-1{fill:#2ca7b3;}.cls-2{fill:#30838f;}.cls-3{fill:#fff;}</style></defs><title>未标题-3</title><rect class="cls-1" width="40" height="40" rx="6"/><ellipse class="cls-2" cx="20" cy="25.841" rx="16.469" ry="2.56"/><path class="cls-3" d="M35.822,23.95c-.069-.136-.149-.277-.236-.421s-.183-.291-.283-.437c-.2-.292-.418-.582-.63-.844-.105-.131-.209-.255-.309-.369l-.1-.11a3.271,3.271,0,0,0-.584-.552h0a2.6,2.6,0,0,0-.354-.17,5.375,5.375,0,0,0-.05-1.02c-.366-2.562-.785-5.5-3.4-7.218-2.536-1.672-5.595-1.18-6.66-1.009a24.137,24.137,0,0,0-7.268,2.934c-.32.173-.635.363-.944.564a4.634,4.634,0,0,1-2.394.749,3.361,3.361,0,0,1-.1,1.476.239.239,0,0,1-.226.17.263.263,0,0,1-.077-.012.251.251,0,0,1-.152-.313,2.28,2.28,0,0,0-.155-1.789,1.207,1.207,0,0,0-1.391-.286,2.54,2.54,0,0,0-1.16,1.3.245.245,0,0,1-.316.127.25.25,0,0,1-.123-.326,1.123,1.123,0,0,1,.138-.229c-.225,0-.434.009-.623.008A4.252,4.252,0,0,0,5.205,18.43a4.52,4.52,0,0,0-.481,3.238,10.159,10.159,0,0,1,.192,1.4,1.351,1.351,0,0,1-.227.854c-.013.02-.028.04-.043.061A1.024,1.024,0,0,0,4.8,25.394a3.213,3.213,0,0,0,.784.5,8.812,8.812,0,0,0,3.144.6c2.187.078,5.694.241,7.86.307a5.856,5.856,0,0,1-.76-.374.252.252,0,0,1-.08-.34.235.235,0,0,1,.329-.083,11.253,11.253,0,0,0,2.91,1.042,4.336,4.336,0,0,0,3.625-.738,1.233,1.233,0,0,0,.55-1.06,2.28,2.28,0,0,0-1.06-1.636,5.819,5.819,0,0,0-2.331-.28c-.259,0-.482,0-.655-.009a1.906,1.906,0,0,1-1.4-.482.253.253,0,0,1,.029-.348.233.233,0,0,1,.333.025,1.658,1.658,0,0,0,1.062.311c.16.009.377.008.628.008a5.728,5.728,0,0,1,2.58.352,2.768,2.768,0,0,1,1.29,2.036,1.715,1.715,0,0,1-.743,1.481c-.019.015-.038.028-.057.042.924-.045,1.867-.11,2.781-.2h.056l.136,0H26.3l.225,0H29l.276,0h.009l.123,0h.123l.109,0h0l.1,0,.082,0c.506-.02,1.207-.082,1.838-.155l.207-.025.2-.025c.2-.025.377-.05.534-.075.078-.012.151-.024.216-.036a10.347,10.347,0,0,1,1.124-.1l.082,0,.162-.008.31-.015.143-.008c.184-.01.34-.021.447-.036a1.061,1.061,0,0,0,.8-.553,1.816,1.816,0,0,0,.206-.658A1.785,1.785,0,0,0,35.822,23.95ZM8.98,21.663a.24.24,0,0,1-.221.156.237.237,0,0,1-.09-.018L7.01,21.117a.249.249,0,0,1-.134-.321.236.236,0,0,1,.311-.138l1.659.683A.251.251,0,0,1,8.98,21.663Z"/><path class="cls-3" d="M31.891,14.009a7.811,7.811,0,0,0-1.6-1.532c-.1-.073-.2-.14-.3-.2a1.157,1.157,0,0,1,.893-.4,1.337,1.337,0,0,1,1.182,1.456A1.594,1.594,0,0,1,31.891,14.009Z"/></svg>