<?xml version="1.0" encoding="utf-8"?>
<!-- Generator: Adobe Illustrator 24.0.0, SVG Export Plug-In . SVG Version: 6.00 Build 0)  -->
<svg version="1.1" id="图层_1" xmlns="http://www.w3.org/2000/svg" xmlns:xlink="http://www.w3.org/1999/xlink" x="0px" y="0px"
	 viewBox="0 0 18 18" style="enable-background:new 0 0 18 18;" xml:space="preserve">
<style type="text/css">
	.st0{fill:#2CA7B3;}
</style>
<title>未标题-1</title>
<path class="st0" d="M14.7,17.4H3.2c-1,0-1.9-0.8-1.9-1.9V2.5c0-1,0.8-1.9,1.9-1.9H10c0.2,0,0.4,0.2,0.4,0.4S10.2,1.4,10,1.4H3.2
	c-0.6,0-1.1,0.5-1.1,1.1v13.1c0,0.6,0.5,1.1,1.1,1.1h11.5c0.6,0,1.1-0.5,1.1-1.1V7c0-0.2,0.2-0.4,0.4-0.4c0.2,0,0.4,0.2,0.4,0.4
	c0,0,0,0,0,0v8.5C16.6,16.6,15.8,17.4,14.7,17.4z"/>
<path class="st0" d="M7.7,11.5c-0.4,0-0.8-0.4-0.8-0.8c0-0.2,0.1-0.4,0.2-0.5l8.2-9c0.3-0.3,0.8-0.4,1.1-0.1
	c0.3,0.3,0.4,0.8,0.1,1.1l-8.2,9C8.1,11.4,7.9,11.5,7.7,11.5z"/>
</svg>
