<svg id="图层_1" data-name="图层 1" xmlns="http://www.w3.org/2000/svg" viewBox="0 0 18 18"><defs><style>.cls-1{fill:#2CA7B3;}</style></defs><title>未标题-1</title><path class="cls-1" d="M13.7,17.413H4.3a1.959,1.959,0,0,1-1.957-1.956V6.065a.392.392,0,0,1,.783,0v9.392A1.176,1.176,0,0,0,4.3,16.631H13.7a1.175,1.175,0,0,0,1.173-1.174V5.283a.392.392,0,1,1,.783,0V15.457A1.958,1.958,0,0,1,13.7,17.413Z"/><path class="cls-1" d="M6.652,15.065a.391.391,0,0,1-.391-.391V7.958a.391.391,0,0,1,.782,0v6.716A.391.391,0,0,1,6.652,15.065Z"/><path class="cls-1" d="M11.348,15.065a.391.391,0,0,1-.392-.391V7.958a.392.392,0,0,1,.783,0v6.716A.391.391,0,0,1,11.348,15.065Z"/><path class="cls-1" d="M17.609,4.109H.391a.392.392,0,0,1,0-.783H17.609a.392.392,0,0,1,0,.783Z"/><path class="cls-1" d="M12.913,2.152H5.087a.783.783,0,1,1,0-1.565h7.826a.783.783,0,1,1,0,1.565Z"/></svg>
