<?xml version="1.0" encoding="iso-8859-1"?>
<!-- Generator: Adobe Illustrator 24.0.0, SVG Export Plug-In . SVG Version: 6.00 Build 0)  -->
<svg version="1.1" id="&#x56FE;&#x5C42;_1" xmlns="http://www.w3.org/2000/svg" xmlns:xlink="http://www.w3.org/1999/xlink" x="0px"
	 y="0px" viewBox="0 0 24 24" style="enable-background:new 0 0 24 24;" xml:space="preserve">
<title>搜索</title>
<path style="fill:#777777;" d="M5.128,10.369c-0.04,0-0.081-0.005-0.12-0.015c-0.266-0.066-0.429-0.334-0.366-0.6
	c0.541-2.125,1.958-3.92,3.9-4.938c0.25-0.117,0.548-0.01,0.665,0.24c0.117,0.25,0.01,0.548-0.24,0.666l0,0
	C7.308,6.62,6.094,8.165,5.613,9.989C5.558,10.212,5.358,10.369,5.128,10.369z"/>
<circle style="fill:#777777;" cx="4.93" cy="12.195" r="0.627"/>
<path style="fill:#777777;" d="M22.608,21.194l-3.651-3.651c-0.016-0.016-0.037-0.021-0.054-0.036
	c3.522-4.295,2.895-10.632-1.4-14.154S6.871,0.458,3.349,4.753s-2.895,10.632,1.4,14.154c3.708,3.04,9.046,3.04,12.754,0
	c0.015,0.017,0.02,0.038,0.036,0.054l3.651,3.651c0.397,0.384,1.03,0.373,1.414-0.025c0.374-0.388,0.374-1.002,0-1.389
	L22.608,21.194z M2.1,11.142c0-4.994,4.049-9.043,9.043-9.043s9.043,4.049,9.043,9.043s-4.049,9.043-9.043,9.043
	C6.151,20.179,2.106,16.134,2.1,11.142z"/>
</svg>
